<svg id="Capa_1" enable-background="new 0 0 512 512" height="512" viewBox="0 0 512 512" width="512" xmlns="http://www.w3.org/2000/svg">
    <g>
    <path d="m181 240v124.58c-4.695-1.665-9.741-2.58-15-2.58-24.813 0-45 20.187-45 45s20.187 45 45 45 45-20.187 45-45v-94.703l120-24v46.283c-4.695-1.665-9.741-2.58-15-2.58-24.813 
    0-45 20.187-45 45s20.187 45 45 45 45-20.187 45-45c0-9.729 0-157.282 0-167 0-4.494-2.015-8.751-5.49-11.6-3.476-2.849-8.046-3.989-12.451-3.109l-150 30c-7.012 1.403-12.059 
    7.559-12.059 14.709zm-15 182c-8.271 0-15-6.729-15-15s6.729-15 15-15 15 6.729 15 15-6.729 15-15 15zm150-30c-8.271 0-15-6.729-15-15s6.729-15 15-15 15 6.729 15 15-6.729 15-15 
    15zm15-163.703v29.406l-120 24v-29.406z"/>
    <path d="m7.716 248.862c4.766 2.646 10.587 2.5 15.21-.378l7.074-4.402v252.918c0 8.284 6.716 15 15 15h422c8.284 0 15-6.716 
    15-15v-252.918l7.074 4.403c4.572 2.846 10.394 3.053 15.21.378 4.762-2.645 7.716-7.665 7.716-13.113v-70.75c0-5.182-2.675-9.997-7.074-12.735l-241-150c-4.852-3.02-11-3.02-15.852 
    0l-241 150c-4.399 2.738-7.074 7.553-7.074 12.735v70.75c0 5.447 2.954 10.467 7.716 13.112zm444.284 233.138h-392v-256.59l196-121.99 196 121.99zm-422-308.668 226-140.664 226 
    140.664v35.414c-22.892-14.248-203.783-126.834-218.074-135.729-2.426-1.51-5.176-2.265-7.926-2.265s-5.5.755-7.926 2.265c-20.69 12.87-197.453 122.894-218.074 135.729z"/>
    </g>
</svg>